<svg width="24" height="24" viewBox="0 0 24 24" fill="none" xmlns="http://www.w3.org/2000/svg">
<path d="M10.2679 21C10.4435 21.304 10.696 21.5565 11 21.732C11.304 21.9075 11.6489 21.9999 11.9999 21.9999C12.351 21.9999 12.6959 21.9075 12.9999 21.732C13.3039 21.5565 13.5564 21.304 13.7319 21" stroke="currentColor" stroke-width="2" stroke-linecap="round" stroke-linejoin="round"/>
<path d="M13.916 2.31415C13.0135 2.01002 12.0515 1.9251 11.1097 2.06642C10.1678 2.20774 9.27317 2.57124 8.49965 3.12685C7.72613 3.68246 7.09598 4.41423 6.66132 5.26164C6.22666 6.10905 5.99997 7.04776 5.99999 8.00015C5.99999 12.4991 4.58899 13.9561 3.25999 15.3271C3.12957 15.4705 3.0436 15.6486 3.01255 15.8399C2.9815 16.0312 3.00671 16.2274 3.0851 16.4047C3.1635 16.5819 3.2917 16.7325 3.45413 16.8383C3.61655 16.944 3.80619 17.0002 3.99999 17.0001H20C20.1938 17.0002 20.3834 16.944 20.5459 16.8383C20.7083 16.7325 20.8365 16.5819 20.9149 16.4047C20.9933 16.2274 21.0185 16.0312 20.9874 15.8399C20.9564 15.6486 20.8704 15.4705 20.74 15.3271C20.5342 15.1152 20.339 14.8933 20.155 14.6621" stroke="currentColor" stroke-width="2" stroke-linecap="round" stroke-linejoin="round"/>
<path d="M18 11C19.6569 11 21 9.65685 21 8C21 6.34315 19.6569 5 18 5C16.3431 5 15 6.34315 15 8C15 9.65685 16.3431 11 18 11Z" fill="currentColor" stroke="currentColor" stroke-width="2" stroke-linecap="round" stroke-linejoin="round"/>
</svg>
