<svg width="24" height="24" viewBox="0 0 24 24" fill="none" xmlns="http://www.w3.org/2000/svg">
<path d="M17.1538 5.10303C17.8466 5.28263 18.4602 5.6872 18.8982 6.25323C19.3362 6.81926 19.5738 7.51471 19.5738 8.23041C19.5738 8.94612 19.3362 9.64156 18.8982 10.2076C18.4602 10.7736 17.8466 11.1782 17.1538 11.3578" stroke="currentColor" stroke-width="2" stroke-linecap="round" stroke-linejoin="round"/>
<path d="M22 19.538V17.9226C21.9994 17.2068 21.7612 16.5114 21.3226 15.9457C20.8841 15.3799 20.27 14.9758 19.5769 14.7969" stroke="currentColor" stroke-width="2" stroke-linecap="round" stroke-linejoin="round"/>
<path d="M5.84619 5C5.15339 5.17961 4.53984 5.58417 4.10183 6.1502C3.66383 6.71623 3.42618 7.41168 3.42618 8.12738C3.42618 8.84309 3.66383 9.53854 4.10183 10.1046C4.53984 10.6706 5.15339 11.0752 5.84619 11.2548" stroke="currentColor" stroke-width="2" stroke-linecap="round" stroke-linejoin="round"/>
<path d="M1.00002 19.435V17.8196C1.00055 17.1038 1.23881 16.4084 1.67738 15.8426C2.11595 15.2769 2.72999 14.8728 3.4231 14.6938" stroke="currentColor" stroke-width="2" stroke-linecap="round" stroke-linejoin="round"/>
<path d="M17.1539 19.5385V17.9232C17.1539 17.0663 16.8135 16.2445 16.2076 15.6387C15.6017 15.0328 14.78 14.6924 13.9231 14.6924H9.07696C8.22011 14.6924 7.39835 15.0328 6.79246 15.6387C6.18658 16.2445 5.84619 17.0663 5.84619 17.9232V19.5385" stroke="currentColor" stroke-width="2" stroke-linecap="round" stroke-linejoin="round"/>
<path d="M11.4999 11.4615C13.2842 11.4615 14.7307 10.0151 14.7307 8.23077C14.7307 6.44646 13.2842 5 11.4999 5C9.71563 5 8.26917 6.44646 8.26917 8.23077C8.26917 10.0151 9.71563 11.4615 11.4999 11.4615Z" stroke="currentColor" stroke-width="2" stroke-linecap="round" stroke-linejoin="round"/>
</svg>
