<svg width="24" height="24" viewBox="0 0 24 24" fill="none" xmlns="http://www.w3.org/2000/svg">
<path d="M5 2H4C2.89543 2 2 2.89543 2 4V9.20784C2 9.73466 2.03299 10.2673 2.21253 10.7625C3.03893 13.0423 5.31988 14.2854 7.5 14.1186M9 2H10C11.1046 2 12 2.89543 12 4V9.01516C12 9.66925 11.9429 10.3303 11.6964 10.9361C10.862 12.987 9.21207 13.9876 7.5 14.1186M7.5 14.1186V17C7.97971 22.2768 17.204 24.3319 19.2766 17.8665C19.4575 17.3021 19.5 16.7015 19.5 16.1088V12.5M19.5 12.5C20.8807 12.5 22 11.3807 22 10C22 8.61929 20.8807 7.5 19.5 7.5C18.1193 7.5 17 8.61929 17 10C17 11.3807 18.1193 12.5 19.5 12.5Z" stroke="currentColor" stroke-width="2" stroke-linecap="round"/>
</svg>
