<svg width="24" height="24" viewBox="0 0 24 24" fill="none" xmlns="http://www.w3.org/2000/svg">
<g clip-path="url(#clip0_74_213)">
<path d="M9.30715 22.7903C10.016 22.7903 10.7179 22.6507 11.3727 22.3794C12.0276 22.1082 12.6226 21.7106 13.1238 21.2094C13.625 20.7082 14.0226 20.1132 14.2939 19.4583C14.5651 18.8034 14.7047 18.1015 14.7047 17.3927C14.7047 16.6839 14.5651 15.982 14.2939 15.3271C14.0226 14.6723 13.625 14.0773 13.1238 13.576C12.6226 13.0748 12.0276 12.6772 11.3727 12.406C10.7179 12.1347 10.016 11.9951 9.30715 11.9951V17.3927V22.7903Z" fill="currentColor"/>
<path d="M14.7047 22.7903C15.4136 22.7903 16.1154 22.6507 16.7703 22.3794C17.4252 22.1082 18.0202 21.7106 18.5214 21.2094C19.0226 20.7082 19.4202 20.1132 19.6915 19.4583C19.9627 18.8034 20.1023 18.1015 20.1023 17.3927C20.1023 16.6839 19.9627 15.982 19.6915 15.3271C19.4202 14.6723 19.0226 14.0773 18.5214 13.576C18.0202 13.0748 17.4252 12.6772 16.7703 12.406C16.1154 12.1347 15.4136 11.9951 14.7047 11.9951V17.3927V22.7903Z" fill="currentColor"/>
<path d="M9.30715 1.2002C8.59832 1.2002 7.89644 1.33981 7.24157 1.61106C6.58671 1.88232 5.99168 2.2799 5.49047 2.78112C4.98925 3.28233 4.59167 3.87736 4.32041 4.53222C4.04916 5.18709 3.90955 5.88897 3.90955 6.5978C3.90955 7.30662 4.04916 8.0085 4.32041 8.66337C4.59167 9.31823 4.98925 9.91326 5.49047 10.4145C5.99168 10.9157 6.58671 11.3133 7.24157 11.5845C7.89644 11.8558 8.59832 11.9954 9.30715 11.9954L9.30715 6.5978V1.2002Z" fill="currentColor"/>
<path d="M14.7047 1.2002C13.9959 1.2002 13.294 1.33981 12.6392 1.61106C11.9843 1.88232 11.3893 2.2799 10.888 2.78112C10.3868 3.28233 9.98925 3.87736 9.718 4.53222C9.44674 5.18709 9.30713 5.88897 9.30713 6.5978C9.30713 7.30662 9.44674 8.0085 9.718 8.66337C9.98925 9.31823 10.3868 9.91326 10.888 10.4145C11.3893 10.9157 11.9843 11.3133 12.6392 11.5845C13.294 11.8558 13.9959 11.9954 14.7047 11.9954L14.7047 6.5978V1.2002Z" fill="currentColor"/>
<path d="M20.1023 1.2002C19.3935 1.2002 18.6916 1.33981 18.0367 1.61106C17.3819 1.88232 16.7868 2.2799 16.2856 2.78112C15.7844 3.28233 15.3868 3.87736 15.1156 4.53222C14.8443 5.18709 14.7047 5.88897 14.7047 6.5978L20.1023 6.5978V1.2002Z" fill="currentColor"/>
<path d="M3.90956 22.7903C4.61839 22.7903 5.32027 22.6507 5.97513 22.3794C6.63 22.1082 7.22503 21.7106 7.72624 21.2094C8.22746 20.7082 8.62504 20.1132 8.8963 19.4583C9.16755 18.8034 9.30716 18.1015 9.30716 17.3927H3.90956V22.7903Z" fill="currentColor"/>
</g>
<defs>
<clipPath id="clip0_74_213">
<rect width="24" height="24" fill="white"/>
</clipPath>
</defs>
</svg>
