<svg width="24" height="24" viewBox="0 0 24 24" fill="none" xmlns="http://www.w3.org/2000/svg">
<path d="M14.2 19.3996V17.7996C14.2 16.9509 13.8629 16.137 13.2627 15.5369C12.6626 14.9368 11.8487 14.5996 11 14.5996H6.2C5.35131 14.5996 4.53737 14.9368 3.93726 15.5369C3.33714 16.137 3 16.9509 3 17.7996V19.3996" stroke="currentColor" stroke-width="2" stroke-linecap="round" stroke-linejoin="round"/>
<path d="M14.2001 5.10205C14.8863 5.27995 15.494 5.68066 15.9278 6.2413C16.3616 6.80194 16.597 7.49076 16.597 8.19965C16.597 8.90854 16.3616 9.59736 15.9278 10.158C15.494 10.7186 14.8863 11.1194 14.2001 11.2972" stroke="currentColor" stroke-width="2" stroke-linecap="round" stroke-linejoin="round"/>
<path d="M19 19.3996V17.7996C18.9994 17.0906 18.7635 16.4018 18.3291 15.8415C17.8947 15.2811 17.2865 14.8809 16.6 14.7036" stroke="currentColor" stroke-width="2" stroke-linecap="round" stroke-linejoin="round"/>
<path d="M8.60002 11.4C10.3673 11.4 11.8 9.96731 11.8 8.2C11.8 6.43269 10.3673 5 8.60002 5C6.83271 5 5.40002 6.43269 5.40002 8.2C5.40002 9.96731 6.83271 11.4 8.60002 11.4Z" stroke="currentColor" stroke-width="2" stroke-linecap="round" stroke-linejoin="round"/>
</svg>
