<svg width="106" height="32" viewBox="0 0 106 32" fill="none" xmlns="http://www.w3.org/2000/svg">
<g clip-path="url(#clip0_641_2296)">
<path d="M12.4095 30.3873C13.3546 30.3873 14.2904 30.2011 15.1636 29.8394C16.0368 29.4778 16.8301 28.9476 17.4984 28.2794C18.1667 27.6111 18.6968 26.8177 19.0585 25.9445C19.4202 25.0714 19.6063 24.1355 19.6063 23.1905C19.6063 22.2454 19.4202 21.3095 19.0585 20.4364C18.6968 19.5632 18.1667 18.7698 17.4984 18.1015C16.8301 17.4333 16.0368 16.9031 15.1636 16.5415C14.2904 16.1798 13.3546 15.9937 12.4095 15.9937L12.4095 23.1905L12.4095 30.3873Z" fill="black"/>
<path d="M19.6063 30.3873C20.5514 30.3873 21.4872 30.2011 22.3604 29.8394C23.2335 29.4778 24.0269 28.9476 24.6952 28.2794C25.3635 27.6111 25.8936 26.8177 26.2553 25.9445C26.6169 25.0714 26.8031 24.1355 26.8031 23.1905C26.8031 22.2454 26.6169 21.3095 26.2553 20.4364C25.8936 19.5632 25.3635 18.7698 24.6952 18.1015C24.0269 17.4333 23.2335 16.9031 22.3604 16.5415C21.4872 16.1798 20.5514 15.9937 19.6063 15.9937L19.6063 23.1905L19.6063 30.3873Z" fill="black"/>
<path d="M12.4095 1.6001C11.4644 1.6001 10.5286 1.78625 9.65541 2.14792C8.78226 2.50959 7.98889 3.03971 7.3206 3.70799C6.65232 4.37628 6.1222 5.16965 5.76053 6.0428C5.39886 6.91596 5.21271 7.8518 5.21271 8.7969C5.21271 9.742 5.39886 10.6778 5.76053 11.551C6.1222 12.4242 6.65232 13.2175 7.3206 13.8858C7.98889 14.5541 8.78226 15.0842 9.65541 15.4459C10.5286 15.8075 11.4644 15.9937 12.4095 15.9937L12.4095 8.7969L12.4095 1.6001Z" fill="black"/>
<path d="M19.6063 1.6001C18.6612 1.6001 17.7253 1.78625 16.8522 2.14792C15.979 2.50959 15.1857 3.03971 14.5174 3.70799C13.8491 4.37628 13.319 5.16965 12.9573 6.0428C12.5956 6.91596 12.4095 7.8518 12.4095 8.7969C12.4095 9.742 12.5956 10.6778 12.9573 11.551C13.319 12.4242 13.8491 13.2175 14.5174 13.8858C15.1857 14.5541 15.979 15.0842 16.8522 15.4459C17.7253 15.8075 18.6612 15.9937 19.6063 15.9937L19.6063 8.7969L19.6063 1.6001Z" fill="black"/>
<path d="M26.8032 1.6001C25.8581 1.6001 24.9222 1.78625 24.0491 2.14792C23.1759 2.50959 22.3826 3.03971 21.7143 3.70799C21.046 4.37628 20.5159 5.16965 20.1542 6.0428C19.7925 6.91596 19.6064 7.8518 19.6064 8.7969L26.8032 8.7969L26.8032 1.6001Z" fill="black"/>
<path d="M5.21273 30.3873C6.15783 30.3873 7.09367 30.2011 7.96683 29.8394C8.83998 29.4778 9.63335 28.9476 10.3016 28.2794C10.9699 27.6111 11.5 26.8177 11.8617 25.9445C12.2234 25.0714 12.4095 24.1355 12.4095 23.1905H5.21273L5.21273 30.3873Z" fill="black"/>
</g>
<path d="M37.68 22.5V7.9H40.96V22.5H37.68ZM48.6806 22.88C47.3606 22.88 46.2473 22.6733 45.3406 22.26C44.434 21.8333 43.7473 21.26 43.2806 20.54C42.814 19.8067 42.5806 18.9667 42.5806 18.02H45.7606C45.7606 18.3933 45.8606 18.74 46.0606 19.06C46.274 19.38 46.594 19.64 47.0206 19.84C47.4473 20.0267 48.0006 20.12 48.6806 20.12C49.294 20.12 49.8073 20.04 50.2206 19.88C50.634 19.72 50.9473 19.5 51.1606 19.22C51.374 18.9267 51.4806 18.5933 51.4806 18.22C51.4806 17.7533 51.2806 17.3867 50.8806 17.12C50.4806 16.84 49.834 16.66 48.9406 16.58L47.8406 16.48C46.3873 16.36 45.2273 15.9067 44.3606 15.12C43.494 14.3333 43.0606 13.2933 43.0606 12C43.0606 11.0667 43.2806 10.26 43.7206 9.58C44.174 8.9 44.8006 8.38 45.6006 8.02C46.4006 7.64667 47.3473 7.46 48.4406 7.46C49.5873 7.46 50.5673 7.66 51.3806 8.06C52.2073 8.44667 52.8406 9 53.2806 9.72C53.7206 10.4267 53.9406 11.26 53.9406 12.22H50.7406C50.7406 11.86 50.654 11.5333 50.4806 11.24C50.3073 10.9333 50.0473 10.6867 49.7006 10.5C49.3673 10.3133 48.9473 10.22 48.4406 10.22C47.9606 10.22 47.554 10.3 47.2206 10.46C46.9006 10.62 46.6606 10.84 46.5006 11.12C46.3406 11.3867 46.2606 11.68 46.2606 12C46.2606 12.4133 46.4073 12.7733 46.7006 13.08C46.994 13.3867 47.474 13.5667 48.1406 13.62L49.2606 13.72C50.3273 13.8133 51.2673 14.0467 52.0806 14.42C52.894 14.78 53.5273 15.28 53.9806 15.92C54.4473 16.5467 54.6806 17.3133 54.6806 18.22C54.6806 19.1533 54.434 19.9733 53.9406 20.68C53.4606 21.3733 52.774 21.9133 51.8806 22.3C50.9873 22.6867 49.9206 22.88 48.6806 22.88ZM61.3405 22.88C60.0205 22.88 58.9071 22.6733 58.0005 22.26C57.0938 21.8333 56.4071 21.26 55.9405 20.54C55.4738 19.8067 55.2405 18.9667 55.2405 18.02H58.4205C58.4205 18.3933 58.5205 18.74 58.7205 19.06C58.9338 19.38 59.2538 19.64 59.6805 19.84C60.1071 20.0267 60.6605 20.12 61.3405 20.12C61.9538 20.12 62.4671 20.04 62.8805 19.88C63.2938 19.72 63.6071 19.5 63.8205 19.22C64.0338 18.9267 64.1405 18.5933 64.1405 18.22C64.1405 17.7533 63.9405 17.3867 63.5405 17.12C63.1405 16.84 62.4938 16.66 61.6005 16.58L60.5005 16.48C59.0471 16.36 57.8871 15.9067 57.0205 15.12C56.1538 14.3333 55.7205 13.2933 55.7205 12C55.7205 11.0667 55.9405 10.26 56.3805 9.58C56.8338 8.9 57.4605 8.38 58.2605 8.02C59.0605 7.64667 60.0071 7.46 61.1005 7.46C62.2471 7.46 63.2271 7.66 64.0405 8.06C64.8671 8.44667 65.5005 9 65.9405 9.72C66.3805 10.4267 66.6005 11.26 66.6005 12.22H63.4005C63.4005 11.86 63.3138 11.5333 63.1405 11.24C62.9671 10.9333 62.7071 10.6867 62.3605 10.5C62.0271 10.3133 61.6071 10.22 61.1005 10.22C60.6205 10.22 60.2138 10.3 59.8805 10.46C59.5605 10.62 59.3205 10.84 59.1605 11.12C59.0005 11.3867 58.9205 11.68 58.9205 12C58.9205 12.4133 59.0671 12.7733 59.3605 13.08C59.6538 13.3867 60.1338 13.5667 60.8005 13.62L61.9205 13.72C62.9871 13.8133 63.9271 14.0467 64.7405 14.42C65.5538 14.78 66.1871 15.28 66.6405 15.92C67.1071 16.5467 67.3405 17.3133 67.3405 18.22C67.3405 19.1533 67.0938 19.9733 66.6005 20.68C66.1205 21.3733 65.4338 21.9133 64.5405 22.3C63.6471 22.6867 62.5805 22.88 61.3405 22.88ZM78.5203 22.5L73.4803 15.68H71.4603L77.5803 7.9H81.3403L75.8403 14.88L75.8003 13.46L82.4803 22.5H78.5203ZM68.9203 22.5V7.9H72.2003V22.5H68.9203ZM83.3194 22.5V7.9H86.5994V22.5H83.3194ZM89.24 22.5V7.9H94.62L100.12 19.84H100.8L100.4 20.2V7.9H103.48V22.5H98.06L92.56 10.56H91.88L92.28 10.2V22.5H89.24Z" fill="black"/>
<defs>
<clipPath id="clip0_641_2296">
<rect width="32" height="32" fill="black"/>
</clipPath>
</defs>
</svg>
